# AST/ASF file generated using VICON BodyLanguage
# -----------------------------------------------
:version 1.10
:name VICON
:units
  mass 1.0
  length 0.45
  angle deg
:documentation
   .ast/.asf automatically generated from VICON data using
   VICON BodyBuilder and BodyLanguage model FoxedUp or BRILLIANT.MOD
:root
   order TX TY TZ RX RY RZ
   axis XYZ
   position 0 0 0  
   orientation 0 0 0 
:bonedata
  begin
     id 1 
     name lhipjoint
     direction 0.535335 -0.74333 0.401095 
     length 2.04549 
     axis 0 0 0  XYZ
  end
  begin
     id 2 
     name lfemur
     direction 0.34202 -0.939693 0  
     length 6.95643  
     axis 0 0 20  XYZ
    dof rx ry rz
    limits (-160.0 20.0)
           (-70.0 70.0)
           (-60.0 70.0)
  end
  begin
     id 3 
     name ltibia
     direction 0.34192 -0.939729 0   
     length 5.55969   
     axis 0 0 20   XYZ
    dof rx
    limits (-10.0 170.0)
  end
  begin
     id 4 
     name lfoot
     direction 0.216943 -0.596046 0.773088   
     length 2.27918   
     axis -90 7.62852e-016 20   XYZ
    dof rx rz
    limits (-45.0 90.0)
           (-70.0 20.0)
  end
  begin
     id 5 
     name ltoes
     direction 1.53519e-011 -4.21748e-011 1   
     length 1.05562   
     axis -90 7.62852e-016 20   XYZ
    dof rx
    limits (-90.0 20.0)
  end
  begin
     id 6 
     name rhipjoint
     direction -0.576368 -0.719173 0.38806   
     length 2.1142  
     axis 0 0 0  XYZ 
  end
  begin
     id 7 
     name rfemur
     direction -0.34202 -0.939693 0   
     length 7.07928   
     axis 0 0 -20   XYZ
    dof rx ry rz
    limits (-160.0 20.0)
           (-70.0 70.0)
           (-70.0 60.0)
  end
  begin
     id 8 
     name rtibia
     direction -0.34202 -0.939693 0   
     length 5.79974   
     axis 0 0 -20   XYZ
    dof rx
    limits (-10.0 170.0)
 end
 begin
     id 9 
     name rfoot
     direction -0.189288 -0.520065 0.832888   
     length 2.42173  
     axis -90 -7.62852e-016 -20   XYZ
    dof rx rz
    limits (-45.0 90.0)
           (-20.0 70.0)
  end
  begin
     id 10 
     name rtoes
     direction -1.53574e-011 -4.21658e-011 1   
     length 1.14469   
     axis -90 -7.62852e-016 -20   XYZ
    dof rx
    limits (-90.0 20.0)
  end
  begin
     id 11 
     name lowerback
     direction -0.00135702 0.993803 0.111144   
     length 1.91308   
     axis 0 0 0   XYZ
    dof rx ry rz
    limits (-20.0 45.0)
           (-30.0 30.0)
           (-30.0 30.0)
  end
  begin
     id 12 
     name upperback
     direction -0.0056745 0.999813 0.0184631   
     length 1.9212   
     axis 0 0 0   XYZ
    dof rx ry rz
    limits (-20.0 45.0)
           (-30.0 30.0)
           (-30.0 30.0)
  end
  begin
     id 13 
     name thorax
     direction -0.00733434 0.999426 -0.0330788   
     length 1.94196   
     axis 0 0 0   XYZ
    dof rx ry rz
    limits (-20.0 45.0)
           (-30.0 30.0)
           (-30.0 30.0)
  end
  begin
     id 14 
     name lowerneck
     direction 0.0563074 0.996944 -0.0541571   
     length 2.34257   
     axis 0 0 0   XYZ
    dof rx ry rz
    limits (-20.0 45.0)
           (-30.0 30.0)
           (-30.0 30.0)
  end
  begin
     id 15 
     name upperneck
     direction -0.0544519 0.976166 -0.210085   
     length 2.32506   
     axis 0 0 0   XYZ
    dof rx ry rz
    limits (-20.0 45.0)
           (-30.0 30.0)
           (-30.0 30.0)
  end
  begin
     id 16
     name head
     direction -0.0226035 0.997615 -0.0652205  
     length 2.3648  
     axis 0 0 0   XYZ
    dof rx ry rz
    limits (-20.0 45.0)
           (-30.0 30.0)
           (-30.0 30.0)
  end
  begin
     id 17 
     name lclavicle
     direction 0.92109 0.381297 -0.0787716  
     length 4.0487  
     axis 0 0 0   XYZ
    dof ry rz
    limits (-20.0 10.0)
           (0.0 20.0)
  end
  begin
     id 18 
     name lhumerus
     direction 1 -4.48986e-011 3.56724e-027   
     length 4.94991   
     axis 180 -30 -90   XYZ
    dof rx ry rz
    limits (-60.0 90.0)
           (-90.0 90.0)
           (-90.0 90.0)
  end
  begin
     id 19
     name lradius
     direction 1 -4.48981e-011 8.62147e-027   
     length 2.7606   
     axis 180 -30 -90   XYZ
    dof rx
    limits (-10.0 170.0)
  end
  begin
     id 20
     name lwrist
     direction 1 -4.48989e-011 1.59799e-026   
     length 1.3803   
     axis -1.17785e-014 90 90   XYZ
    dof ry
    limits (-180.0 0.0)
 end
  begin
     id 21 
     name lhand
     direction 1 -4.48896e-011 3.19599e-026   
     length 0.843936   
     axis -2.03931e-014 90 90   XYZ
    dof rx rz
    limits (-90.0 90.0)
           (-45.0 45.0)
  end
  begin
     id 22 
     name lfingers
     direction 1 -4.48887e-011 6.39197e-026   
     length 0.680403   
     axis -4.07862e-014 90 90   XYZ
    dof rx
    limits (0.0 90.0)
  end
  begin
     id 23
     name lthumb
     direction 0.707107 -6.348e-011 0.707107   
     length 0.976926   
     axis -90 45 2.85299e-015   XYZ
    dof rx rz
    limits (-45.0 45.0)
           (-45.0 45.0)
  end
  begin
     id 24 
     name rclavicle
     direction -0.951104 0.307692 -0.026953   
     length 4.21801  
     axis 0 0 0   XYZ 
    dof ry rz
    limits (-10.0 20.0)
           (-20.0 0.0)
  end
  begin
     id 25 
     name rhumerus
     direction -1 -4.4896e-011 -1.8171e-018  
     length 4.32982   
     axis 180 30 90   XYZ
    dof rx ry rz
    limits (-90.0 60.0)
           (-90.0 90.0)
           (-90.0 90.0)
  end
  begin
     id 26 
     name rradius
     direction -1 -4.48959e-011 8.25165e-027   
     length 3.20057   
     axis 180 30 90   XYZ
    dof rx
    limits (-10.0 170.0)
  end
  begin
     id 27 
     name rwrist
     direction -1 -4.48997e-011 1.59799e-026   
     length 1.60029   
     axis -1.17785e-014 -90 -90   XYZ
    dof ry
    limits (-180.0 0.0)
  end
  begin
     id 28
     name rhand
     direction -1 -4.49023e-011 3.19599e-026   
     length 0.960433   
     axis -2.03931e-014 -90 -90   XYZ
    dof rx rz
    limits (-90.0 90.0)
           (-45.0 45.0)
  end
  begin
     id 29
     name rfingers
     direction -1 -4.48802e-011 6.39197e-026   
     length 0.774326   
     axis -4.07862e-014 -90 -90   XYZ
    dof rx
    limits (0.0 90.0)
  end
  begin
     id 30
     name rthumb
     direction -0.707107 -6.34876e-011 0.707107   
     length 1.11178   
     axis -90 -45 -2.85299e-015   XYZ
    dof rx rz
    limits (-45.0 45.0)
           (-45.0 45.0)
  end
:hierarchy
  begin
    root lhipjoint rhipjoint lowerback
    lhipjoint lfemur
    lfemur ltibia
    ltibia lfoot
    lfoot ltoes
    rhipjoint rfemur
    rfemur rtibia
    rtibia rfoot
    rfoot rtoes
    lowerback upperback
    upperback thorax
    thorax lowerneck lclavicle rclavicle
    lowerneck upperneck
    upperneck head
    lclavicle lhumerus
    lhumerus lradius
    lradius lwrist
    lwrist lhand lthumb
    lhand lfingers
    rclavicle rhumerus
    rhumerus rradius
    rradius rwrist
    rwrist rhand rthumb
    rhand rfingers
end

#!OML:ASF C:\KaitlinTest1\Natural Motions\Nikki\Session 2\Nikki.ASF
:FULLY-SPECIFIED
:DEGREES
268
root -13.6176 15.3782 4.94183 -202.891 87.3811 -218.058
lowerback -3.32833 -1.39126 0.398154
upperback -4.10951 -1.79686 -1.27091
thorax -2.40969 -0.8925 -1.54993
lowerneck -21.9669 -15.0261 -6.84216
upperneck 0.837072 39.9349 3.61076
head 165.727 55.3781 -40.3261
rclavicle -1.16041e-014 -3.97569e-015
rhumerus -23.251 13.0966 -102.149
rradius 33.8811
rwrist 0.300032
rhand -44.2264 11.3833
rfingers 7.12502
rthumb -17.0392 -17.8894
lclavicle -1.16041e-014 -3.97569e-015
lhumerus -17.4532 -12.64 94.8851
lradius 38.1528
lwrist -8.19648
lhand -32.4725 3.35986
lfingers 7.12502
lthumb -5.70498 33.2631
rfemur -36.7878 -6.86053 19.0356
rtibia 59.2375
rfoot -30.2053 -2.35947
rtoes 1.43125e-014
lfemur -37.0914 -1.83334 -20.7853
ltibia 52.2069
lfoot -17.9099 3.0198
ltoes -5.40694e-014
269
root -13.5574 15.5364 4.95073 -195.098 87.4845 -210.181
lowerback -3.94709 -1.38604 0.621562
upperback -4.34742 -1.78071 -1.15009
thorax -2.31244 -0.884424 -1.56342
lowerneck -21.3634 -14.9736 -6.86065
upperneck 0.949979 39.6438 3.65614
head 165.571 55.8215 -40.3101
rclavicle 1.69712e-014 1.07344e-014
rhumerus -23.6308 14.8259 -102.535
rradius 35.2925
rwrist -1.23764
rhand -44.1682 11.3669
rfingers 7.12502
rthumb -16.9831 -17.9107
lclavicle 1.69712e-014 1.07344e-014
lhumerus -17.4679 -13.8429 95.0732
lradius 39.1387
lwrist -7.97771
lhand -32.7499 3.2261
lfingers 7.12502
lthumb -5.97272 33.1219
rfemur -35.0483 -7.419 19.5296
rtibia 56.3036
rfoot -28.8047 -1.51985
rtoes 7.95139e-014
lfemur -35.4066 -1.55381 -20.3453
ltibia 49.3514
lfoot -16.5666 2.3673
ltoes -1.24042e-013
270
root -13.4949 15.7108 4.95822 -190.23 87.6237 -205.303
lowerback -4.70302 -1.45338 0.702448
upperback -4.60857 -1.85791 -1.13636
thorax -2.16583 -0.919055 -1.61266
lowerneck -20.7667 -14.7703 -6.66661
upperneck 1.19825 39.9517 3.90391
head 165.953 55.8102 -40.0864
rclavicle -3.51103e-014 1.07344e-014
rhumerus -24.0434 16.077 -103.232
rradius 36.4905
rwrist -1.82474
rhand -44.0553 11.353
rfingers 7.12502
rthumb -16.8744 -17.9338
lclavicle -3.51103e-014 1.07344e-014
lhumerus -17.5533 -15.122 94.9251
lradius 40.1004
lwrist -7.27143
lhand -32.9379 3.25728
lfingers 7.12502
lthumb -6.15427 33.1479
rfemur -33.3405 -7.99572 19.8714
rtibia 53.1411
rfoot -26.9922 -0.436992
rtoes -1.74931e-014
lfemur -33.6556 -1.08696 -20.0953
ltibia 46.2119
lfoot -14.7783 1.65082
ltoes 6.83819e-014
271
root -13.4079 15.9049 4.95637 -186.406 88.0889 -201.386
lowerback -5.75643 -1.23412 0.927126
upperback -4.74063 -1.5609 -1.03836
thorax -1.7101 -0.766918 -1.65262
lowerneck -20.1704 -14.7975 -6.82083
upperneck 1.29012 39.5794 3.86586
head 165.658 56.1843 -40.1066
rclavicle -6.1002e-015 8.34896e-015
rhumerus -24.4359 17.1676 -103.411
rradius 37.7602
rwrist -2.81538
rhand -43.7996 11.6168
rfingers 7.12502
rthumb -16.6282 -17.6909
lclavicle -6.1002e-015 8.34896e-015
lhumerus -17.6578 -16.2854 95.1817
lradius 41.1952
lwrist -7.17755
lhand -32.845 3.46967
lfingers 7.12502
lthumb -6.06458 33.3629
rfemur -31.3446 -8.4806 20.125
rtibia 49.6889
rfoot -24.8151 1.01696
rtoes 1.04958e-013
lfemur -31.6789 -0.364 -19.8877
ltibia 42.8964
lfoot -12.5605 0.813582
ltoes 1.90833e-014
